<?xml version="1.0" encoding="UTF-8"?>
<svg width="280px" height="61px" viewBox="0 0 280 61" version="1.1" xmlns="http://www.w3.org/2000/svg" xmlns:xlink="http://www.w3.org/1999/xlink">
    <!-- Generator: Sketch 62 (91390) - https://sketch.com -->
    <title>logo</title>
    <desc>Created with Sketch.</desc>
    <g id="Page-1" stroke="none" stroke-width="1" fill="none" fill-rule="evenodd">
        <g id="Pintellect-Website-Copy" transform="translate(-1083.000000, -479.000000)">
            <g id="logo" transform="translate(1083.000000, 469.000000)">
                <g id="PintellectLogoMarkColor" transform="translate(0.000000, 10.886400)">
                    <g id="Group-Copy">
                        <rect id="Rectangle" fill="#3092EB" x="0" y="0" width="22.68" height="10.7352" rx="5.3676"></rect>
                        <rect id="Rectangle-Copy-4" fill="#F15C2A" x="0" y="16.1784" width="22.68" height="10.7352" rx="5.3676"></rect>
                        <rect id="Rectangle-Copy-7" fill="#9F8CE1" x="0" y="32.3568" width="22.68" height="10.7352" rx="5.3676"></rect>
                        <rect id="Rectangle-Copy-5" stroke="#979797" stroke-width="0.5" fill="#FCB249" x="25.0992" y="16.1784" width="22.68" height="10.7352" rx="5.3676"></rect>
                        <rect id="Rectangle-Copy-6" fill="#3092EB" x="50.1984" y="16.1784" width="22.68" height="10.7352" rx="5.3676"></rect>
                        <rect id="Rectangle-Copy-2" fill="#AB6DFD" x="38.2536" y="0" width="22.68" height="10.7352" rx="5.3676"></rect>
                        <rect id="Rectangle-Copy" fill="#29FB9C" x="25.0992" y="0" width="10.7352" height="10.7352" rx="5.3676"></rect>
                        <rect id="Rectangle-Copy-8" fill="#29FB9C" x="25.0992" y="32.3568" width="10.7352" height="10.7352" rx="5.3676"></rect>
                        <rect id="Rectangle-Copy-9" fill="#F15C2A" x="38.2536" y="32.3568" width="10.7352" height="10.7352" rx="5.3676"></rect>
                        <rect id="Rectangle-Copy-3" fill="#FCB249" x="63.3528" y="0" width="10.7352" height="10.7352" rx="5.3676"></rect>
                        <rect id="Rectangle-Copy-10" fill="#FCB249" x="0" y="48.5352" width="10.7352" height="10.7352" rx="5.3676"></rect>
                    </g>
                </g>
                <text id="pintellect" font-family="Avenir-Light, Avenir" font-size="45.36" font-weight="300" fill="#FFFFFF">
                    <tspan x="92.14884" y="45">pintellect</tspan>
                </text>
            </g>
        </g>
    </g>
</svg>